<?xml version="1.0" encoding="UTF-8"?>
<svg xmlns="http://www.w3.org/2000/svg" id="Layer_1" data-name="Layer 1" viewBox="0 0 24 24" width="512" height="512" fill="#fff"><path d="M24,4.5c0-1.93-1.57-3.5-3.5-3.5s-3.5,1.57-3.5,3.5c0,1.76,1.306,3.221,3,3.464v7.536c0,1.93-1.57,3.5-3.5,3.5h-4.897c.073-.188,.185-.364,.336-.516l2.541-2.541c.195-.195,.195-.512,0-.707s-.512-.195-.707,0l-2.541,2.541c-.46,.46-.732,1.223-.732,1.723s.242,1.323,.732,1.813l2.541,2.541c.098,.098,.226,.146,.354,.146s.256-.049,.354-.146c.195-.195,.195-.512,0-.707l-2.541-2.541c-.176-.176-.298-.384-.368-.606h4.929c2.481,0,4.5-2.019,4.5-4.5V7.964c1.694-.243,3-1.704,3-3.464Zm-3.5,2.5c-1.378,0-2.5-1.122-2.5-2.5s1.122-2.5,2.5-2.5,2.5,1.122,2.5,2.5-1.122,2.5-2.5,2.5Zm-6.917-2.5c0-.668-.26-1.296-.732-1.768L10.31,.192C10.114-.003,9.798-.003,9.603,.192s-.195,.512,0,.707l2.541,2.541c.161,.161,.281,.352,.354,.561H7.5c-2.481,0-4.5,2.019-4.5,4.5v7.536c-1.694,.243-3,1.704-3,3.464,0,1.93,1.57,3.5,3.5,3.5s3.5-1.57,3.5-3.5c0-1.76-1.306-3.221-3-3.464v-7.536c0-1.93,1.57-3.5,3.5-3.5h4.997c-.074,.208-.193,.4-.354,.561l-2.541,2.541c-.195,.195-.195,.512,0,.707,.098,.098,.226,.146,.354,.146s.256-.049,.354-.146l2.541-2.541c.472-.472,.732-1.1,.732-1.768Zm-7.583,15c0,1.378-1.122,2.5-2.5,2.5s-2.5-1.122-2.5-2.5,1.122-2.5,2.5-2.5,2.5,1.122,2.5,2.5Z"/></svg>
