<?xml version="1.0" encoding="UTF-8"?>
<svg xmlns="http://www.w3.org/2000/svg" id="Layer_1" data-name="Layer 1" viewBox="0 0 24 24" width="512" height="512" fill="#fff"><path d="M4.874,17.955c-.128,0-.256-.049-.354-.146-.195-.195-.195-.512,0-.707l4.041-4.041c.585-.585,.585-1.536,0-2.121L4.52,6.898c-.195-.195-.195-.512,0-.707s.512-.195,.707,0l4.041,4.041c.975,.975,.975,2.561,0,3.535l-4.041,4.041c-.098,.098-.226,.146-.354,.146Zm19.126,1.545V4.5c0-2.481-2.019-4.5-4.5-4.5H4.5C2.019,0,0,2.019,0,4.5v15c0,2.481,2.019,4.5,4.5,4.5h15c2.481,0,4.5-2.019,4.5-4.5ZM19.5,1c1.93,0,3.5,1.57,3.5,3.5v15c0,1.93-1.57,3.5-3.5,3.5H4.5c-1.93,0-3.5-1.57-3.5-3.5V4.5c0-1.93,1.57-3.5,3.5-3.5h15Zm.5,16.5c0-.276-.224-.5-.5-.5h-7c-.276,0-.5,.224-.5,.5s.224,.5,.5,.5h7c.276,0,.5-.224,.5-.5Z"/></svg>
